<svg xmlns="http://www.w3.org/2000/svg" xmlns:xlink="http://www.w3.org/1999/xlink" width="500" zoomAndPan="magnify" viewBox="0 0 375 374.999991" height="500" preserveAspectRatio="xMidYMid meet" version="1.0"><defs><filter x="0%" y="0%" width="100%" height="100%" id="0933228938"><feColorMatrix values="0 0 0 0 1 0 0 0 0 1 0 0 0 0 1 0 0 0 1 0" color-interpolation-filters="sRGB"/></filter><clipPath id="836bb7821c"><path d="M 56 37.5 L 245 37.5 L 245 167 L 56 167 Z M 56 37.5 " clip-rule="nonzero"/></clipPath><clipPath id="c3a22d1729"><path d="M 56 37.5 L 245 37.5 L 245 50 L 56 50 Z M 56 37.5 " clip-rule="nonzero"/></clipPath><clipPath id="5606d76d8f"><path d="M 5.222656 159 L 117 159 L 117 236 L 5.222656 236 Z M 5.222656 159 " clip-rule="nonzero"/></clipPath><clipPath id="29632518b3"><path d="M 119 177 L 361 177 L 361 337.5 L 119 337.5 Z M 119 177 " clip-rule="nonzero"/></clipPath><mask id="73b4277417"><g filter="url(#0933228938)"><rect x="-37.5" width="450" fill="#000000" y="-37.499999" height="449.999989" fill-opacity="0.2"/></g></mask><clipPath id="519a47d73d"><rect x="0" width="28" y="0" height="18"/></clipPath><mask id="fd5ea2f136"><g filter="url(#0933228938)"><rect x="-37.5" width="450" fill="#000000" y="-37.499999" height="449.999989" fill-opacity="0.2"/></g></mask><clipPath id="080f286472"><path d="M 0.078125 2 L 52 2 L 52 62 L 0.078125 62 Z M 0.078125 2 " clip-rule="nonzero"/></clipPath><clipPath id="df301bd469"><rect x="0" width="54" y="0" height="64"/></clipPath><mask id="5bf4328d60"><g filter="url(#0933228938)"><rect x="-37.5" width="450" fill="#000000" y="-37.499999" height="449.999989" fill-opacity="0.2"/></g></mask><clipPath id="2a68a79563"><rect x="0" width="6" y="0" height="6"/></clipPath><mask id="23ffc59db2"><g filter="url(#0933228938)"><rect x="-37.5" width="450" fill="#000000" y="-37.499999" height="449.999989" fill-opacity="0.2"/></g></mask><clipPath id="bea43695f7"><rect x="0" width="6" y="0" height="6"/></clipPath><mask id="10aad53a4c"><g filter="url(#0933228938)"><rect x="-37.5" width="450" fill="#000000" y="-37.499999" height="449.999989" fill-opacity="0.2"/></g></mask><clipPath id="18b5e7343f"><path d="M 2 3 L 4 3 L 4 5.761719 L 2 5.761719 Z M 2 3 " clip-rule="nonzero"/></clipPath><clipPath id="c53ae62028"><rect x="0" width="6" y="0" height="6"/></clipPath><clipPath id="c5273db81a"><path d="M 5.222656 159 L 117 159 L 117 236 L 5.222656 236 Z M 5.222656 159 " clip-rule="nonzero"/></clipPath></defs><g clip-path="url(#836bb7821c)"><path fill="#e4e8ff" d="M 56.078125 37.535156 L 244.863281 37.535156 L 244.863281 166.351562 L 56.078125 166.351562 Z M 56.078125 37.535156 " fill-opacity="1" fill-rule="nonzero"/></g><path fill="#ffbb00" d="M 107.367188 75.0625 L 244.863281 75.0625 L 244.863281 89.332031 L 107.367188 89.332031 Z M 107.367188 75.0625 " fill-opacity="1" fill-rule="nonzero"/><path fill="#ffbb00" d="M 107.367188 114.355469 L 244.863281 114.355469 L 244.863281 139.957031 L 107.367188 139.957031 Z M 107.367188 114.355469 " fill-opacity="1" fill-rule="nonzero"/><path fill="#ffbb00" d="M 56.078125 71.46875 L 107.367188 71.46875 L 107.367188 166.351562 L 56.078125 166.351562 Z M 56.078125 71.46875 " fill-opacity="1" fill-rule="nonzero"/><g clip-path="url(#c3a22d1729)"><path fill="#ffbb00" d="M 56.078125 37.535156 L 244.863281 37.535156 L 244.863281 49.84375 L 56.078125 49.84375 Z M 56.078125 37.535156 " fill-opacity="1" fill-rule="nonzero"/></g><path fill="#ffbb00" d="M 56.125 51.707031 L 244.910156 51.707031 L 244.910156 61.167969 L 56.125 61.167969 Z M 56.125 51.707031 " fill-opacity="1" fill-rule="nonzero"/><g clip-path="url(#5606d76d8f)"><path fill="#ffbb00" d="M 5.222656 159.554688 L 116.699219 159.554688 L 116.699219 235.957031 L 5.222656 235.957031 Z M 5.222656 159.554688 " fill-opacity="1" fill-rule="nonzero"/></g><path fill="#fed1c5" d="M 306.476562 163.433594 C 307.484375 151.578125 314.949219 137.269531 314.949219 137.269531 L 281.242188 118.09375 L 258.035156 123.617188 C 258.035156 123.617188 258.390625 135.042969 254.617188 138.484375 C 250.84375 141.929688 245.976562 148.257812 251.820312 148.9375 C 257.664062 149.613281 255.128906 153.328125 255.128906 153.328125 C 252.980469 161.265625 257.003906 172.425781 263.816406 176.84375 C 266.867188 178.824219 271.597656 178.660156 275.921875 177.914062 L 275.542969 180.757812 L 271.832031 195.300781 L 304.492188 204.550781 L 313.097656 177.375 C 308.03125 171.222656 306.476562 163.433594 306.476562 163.433594 Z M 306.476562 163.433594 " fill-opacity="1" fill-rule="nonzero"/><path fill="#fed1c5" d="M 95.644531 253.050781 C 87.195312 245.699219 94.269531 243.316406 94.269531 243.316406 C 94.269531 243.316406 91.460938 235.484375 97.144531 235.667969 C 95.210938 230.070312 99.738281 227.746094 101.585938 227.542969 C 100.007812 226.417969 98.300781 225.148438 97.027344 224.066406 C 95.140625 222.613281 91.722656 220.199219 89.40625 218.285156 C 86.953125 216.34375 84.171875 214.179688 83.167969 213.417969 C 79.46875 210.5 82.757812 206.328125 86.742188 208.371094 C 88.457031 209.226562 91.363281 210.910156 93.632812 212.480469 C 95.726562 213.976562 99.265625 216.113281 103.023438 218.871094 C 104.886719 220.246094 107.183594 221.9375 109.300781 223.480469 C 109.664062 222.027344 110.800781 221.269531 111.558594 221.796875 C 115.941406 224.84375 122.253906 226.195312 124.726562 229.621094 C 125.90625 231.253906 130.53125 239.5 132.605469 243.222656 C 133.257812 244.199219 133.925781 245.277344 134.613281 246.492188 C 136.003906 248.949219 133.886719 256.898438 129.183594 259.589844 C 124.394531 262.328125 116.125 262.402344 106.089844 258.699219 C 102.414062 257.347656 98.835938 255.84375 95.644531 253.050781 Z M 95.644531 253.050781 " fill-opacity="1" fill-rule="nonzero"/><g clip-path="url(#29632518b3)"><path fill="#b4b4b3" d="M 217.300781 304.511719 C 224.140625 304.761719 235.777344 294.800781 244.214844 288.109375 C 244.398438 289.488281 249.652344 297.996094 251.359375 310.867188 C 252.742188 321.308594 252.40625 329.742188 251.421875 337.421875 L 360.082031 337.421875 C 357.847656 328.632812 356.484375 319.765625 357.042969 308.550781 C 357.589844 297.472656 357.816406 287.691406 357.78125 278.960938 C 357.78125 278.960938 365.972656 218.324219 343.882812 194.355469 C 330.375 184.632812 313.09375 177.375 313.09375 177.375 C 313.09375 177.375 312.492188 182.957031 295.472656 187.546875 C 295.472656 187.546875 276.972656 190.121094 273.839844 187.433594 C 264.265625 193.992188 249.109375 204.550781 249.109375 204.550781 L 207.972656 263.617188 L 131.109375 238.9375 L 119.304688 264.257812 C 119.304688 264.257812 141.472656 277.75 161.550781 285.941406 C 179.960938 293.457031 203.023438 303.992188 217.300781 304.511719 Z M 217.300781 304.511719 " fill-opacity="1" fill-rule="nonzero"/></g><g mask="url(#73b4277417)"><g transform="matrix(1, 0, 0, 1, 273, 164)"><g clip-path="url(#519a47d73d)"><path fill="#11100f" d="M 25.386719 1.015625 C 16.199219 10.589844 2.914062 13.957031 2.914062 13.957031 L 2.609375 16.269531 C 20.511719 11.550781 25.386719 1.015625 25.386719 1.015625 Z M 25.386719 1.015625 " fill-opacity="1" fill-rule="nonzero"/></g></g></g><g mask="url(#fd5ea2f136)"><g transform="matrix(1, 0, 0, 1, 244, 230)"><g clip-path="url(#df301bd469)"><g clip-path="url(#080f286472)"><path fill="#11100f" d="M 43.484375 19.542969 C 49.527344 13.800781 50.527344 6.535156 49.585938 2.402344 C 52.296875 9.097656 53.296875 15.890625 44.066406 24.660156 C 32.515625 35.632812 20.03125 47.824219 1.8125 61.855469 C 1.664062 60.742188 0.363281 59.207031 0.214844 58.109375 C 18.558594 44.015625 31.835938 30.605469 43.484375 19.542969 Z M 43.484375 19.542969 " fill-opacity="1" fill-rule="nonzero"/></g></g></g></g><g mask="url(#5bf4328d60)"><g transform="matrix(1, 0, 0, 1, 231, 61)"><g clip-path="url(#2a68a79563)"><path fill="#11100f" d="M 4 4.074219 C 4 4.566406 3.597656 4.964844 3.101562 4.964844 C 2.601562 4.964844 2.199219 4.5625 2.199219 4.074219 C 2.199219 3.582031 2.601562 3.183594 3.101562 3.183594 C 3.597656 3.183594 4 3.582031 4 4.074219 Z M 4 4.074219 " fill-opacity="1" fill-rule="nonzero"/></g></g></g><g mask="url(#23ffc59db2)"><g transform="matrix(1, 0, 0, 1, 231, 64)"><g clip-path="url(#bea43695f7)"><path fill="#11100f" d="M 4 3.59375 C 4 4.085938 3.597656 4.484375 3.101562 4.484375 C 2.601562 4.484375 2.199219 4.085938 2.199219 3.59375 C 2.199219 3.101562 2.601562 2.703125 3.101562 2.703125 C 3.597656 2.703125 4 3.101562 4 3.59375 Z M 4 3.59375 " fill-opacity="1" fill-rule="nonzero"/></g></g></g><g mask="url(#10aad53a4c)"><g transform="matrix(1, 0, 0, 1, 231, 66)"><g clip-path="url(#c53ae62028)"><g clip-path="url(#18b5e7343f)"><path fill="#11100f" d="M 4 4.113281 C 4 4.605469 3.597656 5.003906 3.101562 5.003906 C 2.601562 5.003906 2.199219 4.605469 2.199219 4.113281 C 2.199219 3.621094 2.601562 3.222656 3.101562 3.222656 C 3.597656 3.222656 4 3.625 4 4.113281 Z M 4 4.113281 " fill-opacity="1" fill-rule="nonzero"/></g></g></g></g><path fill="#11100f" d="M 56.078125 64.46875 L 107.367188 64.46875 L 107.367188 75.066406 L 56.078125 75.066406 Z M 56.078125 64.46875 " fill-opacity="1" fill-rule="nonzero"/><path fill="#11100f" d="M 232.71875 108.054688 L 202.335938 108.054688 C 200.351562 108.054688 198.738281 106.445312 198.738281 104.457031 L 198.738281 97.820312 C 198.738281 95.832031 200.351562 94.21875 202.335938 94.21875 L 232.71875 94.21875 C 234.707031 94.21875 236.320312 95.832031 236.320312 97.820312 L 236.320312 104.457031 C 236.320312 106.445312 234.707031 108.054688 232.71875 108.054688 Z M 232.71875 108.054688 " fill-opacity="1" fill-rule="nonzero"/><path fill="#11100f" d="M 232.71875 134.074219 L 202.335938 134.074219 C 200.351562 134.074219 198.738281 132.460938 198.738281 130.472656 L 198.738281 123.835938 C 198.738281 121.851562 200.351562 120.238281 202.335938 120.238281 L 232.71875 120.238281 C 234.707031 120.238281 236.320312 121.851562 236.320312 123.835938 L 236.320312 130.472656 C 236.320312 132.460938 234.707031 134.074219 232.71875 134.074219 Z M 232.71875 134.074219 " fill-opacity="1" fill-rule="nonzero"/><path fill="#11100f" d="M 232.71875 160.089844 L 202.335938 160.089844 C 200.351562 160.089844 198.738281 158.476562 198.738281 156.492188 L 198.738281 149.851562 C 198.738281 147.867188 200.351562 146.253906 202.335938 146.253906 L 232.71875 146.253906 C 234.707031 146.253906 236.320312 147.867188 236.320312 149.851562 L 236.320312 156.492188 C 236.320312 158.476562 234.707031 160.089844 232.71875 160.089844 Z M 232.71875 160.089844 " fill-opacity="1" fill-rule="nonzero"/><path fill="#11100f" d="M 342.371094 203.539062 C 326.699219 177.53125 354.722656 113.53125 313.519531 99.574219 C 311.144531 96.011719 305.121094 90.058594 290.976562 90.074219 C 278.28125 90.089844 272.863281 94.648438 267.691406 96.867188 C 262.171875 99.234375 253.632812 108.25 253.394531 119.097656 C 253.378906 119.09375 253.355469 119.105469 253.335938 119.097656 C 253.34375 119.183594 253.375 119.238281 253.382812 119.324219 C 253.378906 119.722656 253.300781 120.097656 253.316406 120.5 C 253.503906 124.425781 254.84375 126.789062 256.972656 128.042969 C 262.136719 133.8125 271.660156 132.757812 280.40625 133.765625 C 280.46875 140.71875 281.640625 142.453125 281.640625 142.453125 C 281.640625 142.453125 283.300781 137.917969 286.21875 134.933594 C 291.632812 136.609375 296.148438 140.167969 298.109375 148.472656 C 299.902344 156.082031 287.117188 170.035156 291.164062 182.40625 C 277.542969 213.222656 285.023438 240.941406 317.617188 228.945312 C 331.023438 244.816406 369.769531 229.625 342.371094 203.539062 Z M 342.371094 203.539062 " fill-opacity="1" fill-rule="nonzero"/><path fill="#11100f" d="M 63.738281 43.308594 C 63.738281 44.160156 63.089844 44.855469 62.289062 44.855469 C 61.488281 44.855469 60.835938 44.160156 60.835938 43.308594 C 60.835938 42.453125 61.488281 41.761719 62.289062 41.761719 C 63.089844 41.761719 63.738281 42.453125 63.738281 43.308594 Z M 63.738281 43.308594 " fill-opacity="1" fill-rule="nonzero"/><path fill="#11100f" d="M 69.0625 43.308594 C 69.0625 44.160156 68.410156 44.855469 67.613281 44.855469 C 66.808594 44.855469 66.160156 44.160156 66.160156 43.308594 C 66.160156 42.453125 66.8125 41.761719 67.613281 41.761719 C 68.414062 41.757812 69.0625 42.453125 69.0625 43.308594 Z M 69.0625 43.308594 " fill-opacity="1" fill-rule="nonzero"/><path fill="#11100f" d="M 74.386719 43.308594 C 74.386719 44.160156 73.738281 44.855469 72.9375 44.855469 C 72.132812 44.855469 71.484375 44.160156 71.484375 43.308594 C 71.484375 42.453125 72.136719 41.761719 72.9375 41.761719 C 73.738281 41.757812 74.386719 42.453125 74.386719 43.308594 Z M 74.386719 43.308594 " fill-opacity="1" fill-rule="nonzero"/><path fill="#11100f" d="M 65.210938 98.988281 L 97.449219 98.988281 L 97.449219 103.578125 L 65.210938 103.578125 Z M 65.210938 98.988281 " fill-opacity="1" fill-rule="nonzero"/><path fill="#11100f" d="M 65.210938 123.886719 L 97.449219 123.886719 L 97.449219 128.480469 L 65.210938 128.480469 Z M 65.210938 123.886719 " fill-opacity="1" fill-rule="nonzero"/><path fill="#11100f" d="M 65.210938 149.671875 L 97.449219 149.671875 L 97.449219 154.261719 L 65.210938 154.261719 Z M 65.210938 149.671875 " fill-opacity="1" fill-rule="nonzero"/><path fill="#11100f" d="M 117.957031 97.996094 L 117.023438 98.183594 L 117.023438 100.167969 L 190.382812 100.167969 L 191.316406 99.980469 L 191.316406 97.996094 Z M 117.957031 97.996094 " fill-opacity="1" fill-rule="nonzero"/><path fill="#11100f" d="M 116.8125 105.128906 L 116.8125 107.113281 L 148.527344 107.113281 L 149.460938 106.921875 L 149.460938 104.9375 L 117.75 104.9375 Z M 116.8125 105.128906 " fill-opacity="1" fill-rule="nonzero"/><path fill="#11100f" d="M 118.058594 122.597656 L 117.125 122.785156 L 117.125 124.769531 L 190.488281 124.769531 L 191.417969 124.582031 L 191.417969 122.597656 Z M 118.058594 122.597656 " fill-opacity="1" fill-rule="nonzero"/><path fill="#11100f" d="M 116.917969 129.726562 L 116.917969 131.714844 L 148.632812 131.714844 L 149.566406 131.523438 L 149.566406 129.539062 L 117.851562 129.539062 Z M 116.917969 129.726562 " fill-opacity="1" fill-rule="nonzero"/><path fill="#11100f" d="M 118.679688 148.613281 L 117.75 148.800781 L 117.75 150.785156 L 191.109375 150.785156 L 192.039062 150.597656 L 192.039062 148.613281 Z M 118.679688 148.613281 " fill-opacity="1" fill-rule="nonzero"/><path fill="#11100f" d="M 117.539062 155.746094 L 117.539062 157.730469 L 149.253906 157.730469 L 150.183594 157.539062 L 150.183594 155.554688 L 118.472656 155.554688 Z M 117.539062 155.746094 " fill-opacity="1" fill-rule="nonzero"/><g clip-path="url(#c5273db81a)"><path fill="#11100f" d="M 97.144531 235.667969 C 96.386719 233.472656 96.636719 231.796875 97.3125 230.539062 L 10.921875 230.539062 L 10.921875 171.84375 L 60.324219 211.535156 L 111 171.84375 L 111 221.648438 C 111.195312 221.644531 111.386719 221.679688 111.558594 221.796875 C 113.113281 222.878906 114.914062 223.746094 116.695312 224.566406 L 116.695312 159.554688 L 5.222656 159.554688 L 5.222656 235.957031 L 95.371094 235.957031 C 95.839844 235.753906 96.421875 235.644531 97.144531 235.667969 Z M 111 165.296875 L 60.324219 204.355469 L 10.921875 165.296875 Z M 111 165.296875 " fill-opacity="1" fill-rule="nonzero"/></g></svg>