<svg xmlns="http://www.w3.org/2000/svg" xmlns:xlink="http://www.w3.org/1999/xlink" width="500" zoomAndPan="magnify" viewBox="0 0 375 374.999991" height="500" preserveAspectRatio="xMidYMid meet" version="1.0"><defs><clipPath id="7e2549efb5"><path d="M 10 113 L 368.160156 113 L 368.160156 260 L 10 260 Z M 10 113 " clip-rule="nonzero"/></clipPath><clipPath id="af68374e98"><path d="M 6.660156 80.3125 L 205 80.3125 L 205 206 L 6.660156 206 Z M 6.660156 80.3125 " clip-rule="nonzero"/></clipPath><clipPath id="47ca61c7c8"><path d="M 54 237 L 113 237 L 113 294.8125 L 54 294.8125 Z M 54 237 " clip-rule="nonzero"/></clipPath><clipPath id="940949992d"><path d="M 258 237 L 316 237 L 316 294.8125 L 258 294.8125 Z M 258 237 " clip-rule="nonzero"/></clipPath></defs><g clip-path="url(#7e2549efb5)"><path fill="#63635e" d="M 361.800781 226.988281 L 360.066406 226.988281 L 360.066406 202.539062 C 360.066406 197.1875 357.460938 189.378906 354.136719 185.039062 L 305.242188 121.535156 C 301.917969 117.34375 294.972656 113.871094 289.621094 113.871094 L 224.238281 113.871094 C 218.886719 113.871094 214.546875 118.210938 214.546875 123.5625 L 214.546875 215.558594 L 19.703125 215.558594 C 14.351562 215.558594 10.011719 219.898438 10.011719 225.25 L 10.011719 250.128906 C 10.011719 255.484375 14.351562 259.820312 19.703125 259.820312 L 48.78125 259.820312 C 51.671875 243.1875 66.136719 230.601562 83.496094 230.601562 C 100.851562 230.601562 115.316406 243.1875 118.210938 259.820312 L 252.445312 259.820312 C 255.339844 243.1875 269.804688 230.601562 287.164062 230.601562 C 304.519531 230.601562 318.984375 243.1875 321.878906 259.820312 L 350.230469 259.820312 C 350.519531 259.820312 350.664062 259.820312 350.953125 259.675781 C 351.242188 259.675781 351.386719 259.820312 351.675781 259.820312 L 361.65625 259.820312 C 365.273438 259.820312 368.167969 256.929688 368.167969 253.3125 L 368.167969 233.351562 C 368.3125 229.878906 365.417969 226.988281 361.800781 226.988281 Z M 325.640625 186.773438 L 244.78125 186.773438 C 241.164062 186.773438 238.269531 183.882812 238.269531 180.265625 L 238.269531 133.253906 C 238.269531 129.636719 241.164062 126.746094 244.78125 126.746094 L 286.4375 126.746094 C 290.054688 126.746094 294.683594 129.058594 296.855469 131.953125 L 328.097656 172.453125 C 330.269531 175.347656 332.003906 179.6875 332.003906 182.144531 C 332.003906 184.605469 329.109375 186.773438 325.640625 186.773438 Z M 325.640625 186.773438 " fill-opacity="1" fill-rule="nonzero"/></g><g clip-path="url(#af68374e98)"><path fill="#d5b60a" d="M 194.585938 205.433594 C 199.9375 205.433594 204.277344 201.09375 204.277344 195.742188 L 204.277344 90.003906 C 204.277344 84.652344 199.9375 80.3125 194.585938 80.3125 L 16.378906 80.3125 C 11.027344 80.3125 6.6875 84.652344 6.6875 90.003906 L 6.6875 195.742188 C 6.6875 201.09375 11.027344 205.433594 16.378906 205.433594 Z M 194.585938 205.433594 " fill-opacity="1" fill-rule="nonzero"/></g><path fill="#ffffff" d="M 296.855469 131.953125 C 294.683594 129.058594 289.910156 126.746094 286.4375 126.746094 L 244.78125 126.746094 C 241.164062 126.746094 238.269531 129.636719 238.269531 133.253906 L 238.269531 180.265625 C 238.269531 183.882812 241.164062 186.773438 244.78125 186.773438 L 325.640625 186.773438 C 329.253906 186.773438 332.148438 184.75 332.148438 182.144531 C 332.148438 179.542969 330.414062 175.203125 328.242188 172.453125 Z M 296.855469 131.953125 " fill-opacity="1" fill-rule="nonzero"/><g clip-path="url(#47ca61c7c8)"><path fill="#63635e" d="M 83.496094 237.113281 C 67.582031 237.113281 54.710938 249.984375 54.710938 265.898438 C 54.710938 281.808594 67.582031 294.683594 83.496094 294.683594 C 99.40625 294.683594 112.28125 281.808594 112.28125 265.898438 C 112.28125 249.984375 99.40625 237.113281 83.496094 237.113281 Z M 83.496094 277.902344 C 76.839844 277.902344 71.488281 272.550781 71.488281 265.898438 C 71.488281 259.242188 76.839844 253.890625 83.496094 253.890625 C 90.148438 253.890625 95.5 259.242188 95.5 265.898438 C 95.5 272.550781 90.148438 277.902344 83.496094 277.902344 Z M 83.496094 277.902344 " fill-opacity="1" fill-rule="nonzero"/></g><path fill="#ffffff" d="M 83.496094 253.890625 C 76.839844 253.890625 71.488281 259.242188 71.488281 265.898438 C 71.488281 272.550781 76.839844 277.902344 83.496094 277.902344 C 90.148438 277.902344 95.5 272.550781 95.5 265.898438 C 95.5 259.386719 90.148438 253.890625 83.496094 253.890625 Z M 83.496094 253.890625 " fill-opacity="1" fill-rule="nonzero"/><g clip-path="url(#940949992d)"><path fill="#63635e" d="M 287.164062 237.113281 C 271.25 237.113281 258.378906 249.984375 258.378906 265.898438 C 258.378906 281.808594 271.25 294.683594 287.164062 294.683594 C 303.074219 294.683594 315.949219 281.808594 315.949219 265.898438 C 315.949219 249.984375 303.074219 237.113281 287.164062 237.113281 Z M 287.164062 277.902344 C 280.507812 277.902344 275.15625 272.550781 275.15625 265.898438 C 275.15625 259.242188 280.507812 253.890625 287.164062 253.890625 C 293.816406 253.890625 299.167969 259.242188 299.167969 265.898438 C 299.167969 272.550781 293.816406 277.902344 287.164062 277.902344 Z M 287.164062 277.902344 " fill-opacity="1" fill-rule="nonzero"/></g><path fill="#ffffff" d="M 287.164062 253.890625 C 280.507812 253.890625 275.15625 259.242188 275.15625 265.898438 C 275.15625 272.550781 280.507812 277.902344 287.164062 277.902344 C 293.816406 277.902344 299.167969 272.550781 299.167969 265.898438 C 299.167969 259.386719 293.816406 253.890625 287.164062 253.890625 Z M 287.164062 253.890625 " fill-opacity="1" fill-rule="nonzero"/></svg>