<svg xmlns="http://www.w3.org/2000/svg" xmlns:xlink="http://www.w3.org/1999/xlink" width="500" zoomAndPan="magnify" viewBox="0 0 375 374.999991" height="500" preserveAspectRatio="xMidYMid meet" version="1.0"><defs><clipPath id="55148228f9"><path d="M 103 122 L 272 122 L 272 348.902344 L 103 348.902344 Z M 103 122 " clip-rule="nonzero"/></clipPath><clipPath id="0b28de2535"><path d="M 147 303 L 228 303 L 228 348.902344 L 147 348.902344 Z M 147 303 " clip-rule="nonzero"/></clipPath><clipPath id="d7cc9ac47f"><path d="M 183 57.152344 L 192 57.152344 L 192 113 L 183 113 Z M 183 57.152344 " clip-rule="nonzero"/></clipPath><clipPath id="29d7a04c13"><path d="M 311 231 L 366.460938 231 L 366.460938 241 L 311 241 Z M 311 231 " clip-rule="nonzero"/></clipPath><clipPath id="b77d1d33ef"><path d="M 8.710938 231 L 64 231 L 64 241 L 8.710938 241 Z M 8.710938 231 " clip-rule="nonzero"/></clipPath></defs><g clip-path="url(#55148228f9)"><path fill="#ffffff" d="M 207.050781 349.019531 L 167.949219 349.019531 C 157.472656 349.019531 148.398438 339.941406 148.398438 329.46875 C 148.398438 282.6875 136.527344 270.816406 124.65625 259.644531 C 114.183594 249.171875 103.710938 238.695312 103.710938 206.578125 C 103.710938 160.492188 141.414062 122.789062 187.5 122.789062 C 233.582031 122.789062 271.289062 160.492188 271.289062 206.578125 C 271.289062 238.695312 260.816406 249.171875 250.339844 259.644531 C 238.472656 270.816406 226.601562 282.6875 226.601562 329.46875 C 226.601562 339.941406 217.523438 349.019531 207.050781 349.019531 Z M 207.050781 349.019531 " fill-opacity="1" fill-rule="evenodd"/></g><path fill="#d5b60a" d="M 187.5 312.011719 C 185.40625 312.011719 183.308594 310.617188 183.308594 307.824219 L 183.308594 250.566406 C 183.308594 248.472656 185.40625 246.378906 187.5 246.378906 C 189.59375 246.378906 191.6875 248.472656 191.6875 250.566406 L 191.6875 307.824219 C 191.6875 310.617188 189.59375 312.011719 187.5 312.011719 Z M 187.5 312.011719 " fill-opacity="1" fill-rule="evenodd"/><path fill="#d5b60a" d="M 179.121094 254.757812 C 177.027344 254.757812 175.628906 253.359375 174.929688 251.265625 L 172.136719 237.300781 C 171.441406 237.300781 171.441406 237.300781 170.742188 236.601562 L 158.871094 244.28125 C 156.777344 245.679688 154.679688 245.679688 153.285156 244.28125 L 142.113281 232.414062 C 140.714844 231.015625 140.019531 228.921875 141.414062 227.523438 L 149.09375 214.957031 C 149.09375 214.957031 148.398438 214.257812 148.398438 213.558594 L 134.433594 210.765625 C 132.335938 210.070312 130.941406 208.671875 130.941406 206.578125 L 130.941406 190.519531 C 130.941406 188.421875 132.335938 186.328125 134.433594 186.328125 L 148.398438 182.835938 C 148.398438 182.835938 149.09375 182.136719 149.09375 181.441406 L 141.414062 169.570312 C 140.019531 168.171875 140.714844 165.378906 142.113281 163.984375 L 153.285156 152.8125 C 154.679688 151.414062 156.777344 151.414062 158.871094 152.113281 L 170.742188 159.792969 C 171.441406 159.792969 171.441406 159.792969 172.136719 159.097656 L 174.929688 145.132812 C 175.628906 143.734375 177.027344 142.339844 179.121094 142.339844 L 195.878906 142.339844 C 197.972656 142.339844 199.371094 143.734375 200.066406 145.132812 L 202.859375 159.097656 C 203.558594 159.792969 203.558594 159.792969 204.257812 159.792969 L 216.128906 152.113281 C 218.222656 151.414062 220.316406 151.414062 221.714844 152.8125 L 232.886719 163.984375 C 234.28125 165.378906 234.980469 168.171875 233.582031 169.570312 L 225.902344 181.441406 C 225.902344 182.136719 226.601562 182.835938 226.601562 182.835938 L 240.566406 186.328125 C 242.660156 186.328125 244.058594 188.421875 244.058594 190.519531 L 244.058594 206.578125 C 244.058594 208.671875 242.660156 210.070312 240.566406 210.765625 L 226.601562 213.558594 C 226.601562 214.257812 225.902344 214.957031 225.902344 214.957031 L 233.582031 227.523438 C 234.980469 228.921875 234.28125 231.015625 232.886719 232.414062 L 221.714844 244.28125 C 220.316406 245.679688 218.222656 245.679688 216.128906 244.28125 L 204.257812 236.601562 C 203.558594 237.300781 203.558594 237.300781 202.859375 237.300781 L 200.066406 251.265625 C 199.371094 253.359375 197.972656 254.757812 195.878906 254.757812 Z M 187.5 219.84375 C 175.628906 219.84375 166.550781 210.070312 166.550781 198.199219 C 166.550781 187.027344 175.628906 177.25 187.5 177.25 C 199.371094 177.25 208.445312 187.027344 208.445312 198.199219 C 208.445312 210.070312 199.371094 219.84375 187.5 219.84375 Z M 187.5 219.84375 " fill-opacity="1" fill-rule="evenodd"/><g clip-path="url(#0b28de2535)"><path fill="#63635e" d="M 147.699219 312.011719 C 147.699219 309.21875 147.699219 306.425781 147 303.632812 L 227.996094 303.632812 C 227.300781 306.425781 227.300781 309.21875 227.300781 312.011719 C 226.601562 317.597656 226.601562 323.183594 226.601562 329.46875 C 226.601562 339.941406 217.523438 349.019531 207.050781 349.019531 L 167.949219 349.019531 C 157.472656 349.019531 148.398438 339.941406 148.398438 329.46875 C 148.398438 323.183594 148.398438 317.597656 147.699219 312.011719 Z M 147.699219 312.011719 " fill-opacity="1" fill-rule="evenodd"/></g><g clip-path="url(#d7cc9ac47f)"><path fill="#ffffff" d="M 187.5 112.3125 C 185.40625 112.3125 183.308594 110.21875 183.308594 108.125 L 183.308594 61.34375 C 183.308594 59.246094 185.40625 57.152344 187.5 57.152344 C 189.59375 57.152344 191.6875 59.246094 191.6875 61.34375 L 191.6875 108.125 C 191.6875 110.21875 189.59375 112.3125 187.5 112.3125 Z M 187.5 112.3125 " fill-opacity="1" fill-rule="evenodd"/></g><path fill="#ffffff" d="M 251.738281 129.070312 C 251.039062 129.070312 249.644531 129.070312 249.644531 129.070312 C 247.546875 127.675781 246.851562 124.882812 247.546875 122.789062 L 271.289062 82.988281 C 271.988281 80.894531 274.78125 80.195312 276.875 80.894531 C 278.96875 82.289062 279.667969 85.082031 278.269531 87.175781 L 255.230469 126.976562 C 254.53125 128.375 253.132812 129.070312 251.738281 129.070312 Z M 251.738281 129.070312 " fill-opacity="1" fill-rule="evenodd"/><path fill="#ffffff" d="M 298.519531 175.855469 C 296.425781 175.855469 295.027344 175.15625 294.332031 173.757812 C 293.632812 172.363281 294.332031 169.570312 296.425781 168.171875 L 336.226562 145.132812 C 338.320312 143.734375 341.113281 144.433594 342.511719 146.527344 C 343.207031 148.621094 342.511719 151.414062 340.414062 152.113281 L 300.613281 175.855469 C 299.917969 175.855469 299.21875 175.855469 298.519531 175.855469 Z M 298.519531 175.855469 " fill-opacity="1" fill-rule="evenodd"/><g clip-path="url(#29d7a04c13)"><path fill="#ffffff" d="M 362.0625 240.09375 L 315.277344 240.09375 C 313.183594 240.09375 311.089844 238 311.089844 235.902344 C 311.089844 233.808594 313.183594 231.714844 315.277344 231.714844 L 362.0625 231.714844 C 364.15625 231.714844 366.25 233.808594 366.25 235.902344 C 366.25 238 364.15625 240.09375 362.0625 240.09375 Z M 362.0625 240.09375 " fill-opacity="1" fill-rule="evenodd"/></g><g clip-path="url(#b77d1d33ef)"><path fill="#ffffff" d="M 59.71875 240.09375 L 12.9375 240.09375 C 10.84375 240.09375 8.746094 238 8.746094 235.902344 C 8.746094 233.808594 10.84375 231.714844 12.9375 231.714844 L 59.71875 231.714844 C 61.816406 231.714844 63.910156 233.808594 63.910156 235.902344 C 63.910156 238 61.816406 240.09375 59.71875 240.09375 Z M 59.71875 240.09375 " fill-opacity="1" fill-rule="evenodd"/></g><path fill="#ffffff" d="M 76.476562 175.855469 C 75.78125 175.855469 75.082031 175.855469 74.382812 175.855469 L 34.582031 152.113281 C 32.488281 151.414062 31.789062 148.621094 32.488281 146.527344 C 33.886719 144.433594 36.679688 143.734375 38.773438 145.132812 L 78.574219 168.171875 C 80.667969 169.570312 81.367188 172.363281 80.667969 173.757812 C 79.96875 175.15625 78.574219 175.855469 76.476562 175.855469 Z M 76.476562 175.855469 " fill-opacity="1" fill-rule="evenodd"/><path fill="#ffffff" d="M 123.261719 129.070312 C 121.863281 129.070312 120.46875 128.375 119.769531 126.976562 L 96.726562 87.175781 C 95.332031 85.082031 96.027344 82.289062 98.125 80.894531 C 100.21875 80.195312 103.011719 80.894531 103.710938 82.988281 L 127.449219 122.789062 C 128.148438 124.882812 127.449219 127.675781 125.355469 129.070312 C 125.355469 129.070312 123.957031 129.070312 123.261719 129.070312 Z M 123.261719 129.070312 " fill-opacity="1" fill-rule="evenodd"/></svg>