<svg xmlns="http://www.w3.org/2000/svg" xmlns:xlink="http://www.w3.org/1999/xlink" width="500" zoomAndPan="magnify" viewBox="0 0 375 374.999991" height="500" preserveAspectRatio="xMidYMid meet" version="1.0"><defs><clipPath id="101b0cb132"><path d="M 7.160156 0 L 366 0 L 366 375 L 7.160156 375 Z M 7.160156 0 " clip-rule="nonzero"/></clipPath></defs><g clip-path="url(#101b0cb132)"><path fill="#b4b4b3" d="M 359.535156 95.390625 C 359.035156 93.816406 357.574219 92.671875 355.839844 92.976562 C 353.054688 93.472656 350.230469 93.34375 347.433594 94.316406 C 338.984375 97.246094 338.929688 97.085938 332.402344 90.558594 C 331.351562 89.507812 330.339844 88.429688 329.234375 87.457031 C 326.488281 85.039062 323.648438 82.671875 320.167969 81.453125 C 312.824219 78.851562 305.226562 79.730469 297.660156 80.070312 C 293.625 80.253906 289.289062 81.910156 285.941406 77.8125 C 284.914062 76.550781 283.023438 76.339844 281.511719 76.945312 C 278.160156 78.257812 276.742188 76.589844 275.902344 73.738281 C 275.046875 70.808594 272.917969 69.414062 270.054688 69.085938 C 267.726562 68.824219 265.824219 67.878906 263.917969 66.5 C 261.511719 64.75 258.992188 62.804688 255.628906 63.582031 C 254.285156 62.621094 252.738281 63.425781 251.210938 63.054688 C 245.445312 61.675781 240.265625 58.679688 234.421875 57.5 C 229.019531 56.40625 229.558594 56.289062 229.414062 51.269531 C 229.214844 44.609375 227.507812 38.683594 219.835938 36.816406 C 218.128906 36.394531 217.679688 34.910156 217.363281 33.441406 C 216.15625 27.882812 213.84375 22.796875 210.859375 17.988281 C 209.902344 16.4375 208.71875 15.175781 207.15625 14.257812 C 204.566406 12.757812 202.515625 13.0625 200.625 15.359375 C 199.179688 17.121094 198.261719 19.234375 197.011719 21.089844 C 195.199219 23.78125 193.554688 27.226562 189.496094 26.75 C 186.59375 26.410156 183.648438 25.964844 180.8125 25.042969 C 176.042969 23.492188 171.613281 24.175781 167.988281 27.855469 C 165.910156 29.957031 164.214844 32.441406 162.0625 34.4375 C 159.734375 36.59375 157.410156 39.285156 153.953125 39.273438 C 149.722656 39.246094 145.542969 38.328125 141.417969 37.40625 C 140.839844 37.277344 140.011719 37.199219 139.972656 36.582031 C 139.789062 33.558594 137.859375 30.496094 140.195312 27.515625 C 141.8125 25.449219 142.285156 23.085938 141.667969 20.535156 C 141.3125 19.078125 141.5625 18.039062 142.757812 16.898438 C 145.175781 14.558594 144.140625 11.261719 140.867188 10.273438 C 139.515625 9.867188 138.148438 10.066406 136.765625 10.105469 C 134.46875 10.183594 133.179688 8.566406 133.679688 6.386719 C 133.96875 5.152344 133.457031 4.046875 133.195312 2.917969 C 132.863281 1.496094 132.183594 0.238281 130.550781 0.132812 C 128.976562 0.0390625 128.015625 1.039062 127.476562 2.445312 C 127.164062 3.257812 127.070312 4.324219 126.019531 4.492188 C 122.839844 5.007812 120.265625 7.082031 117.230469 7.898438 C 110.304688 9.761719 103.339844 11.523438 96.375 13.269531 C 93.289062 14.046875 91.605469 15.9375 91.476562 19.089844 C 91.359375 22.046875 91.398438 25.003906 91.292969 27.960938 C 91.1875 30.957031 90.320312 34.136719 93.695312 36.148438 C 94.078125 36.371094 94.207031 37.183594 94.273438 37.75 C 94.640625 41.691406 93.710938 45.226562 90.699219 47.945312 C 89.097656 49.390625 87.375 50.746094 85.617188 51.980469 C 79.980469 55.910156 71.910156 53.4375 69.347656 47.039062 C 68.324219 44.464844 67.601562 41.808594 67.207031 39.0625 C 66.90625 36.933594 65.65625 35.4375 63.554688 35.4375 C 57.773438 35.449219 51.953125 34.464844 46.195312 35.921875 C 43.753906 36.539062 41.597656 37.566406 41.269531 40.339844 C 40.875 43.808594 39.101562 47.550781 42.976562 50.402344 C 45.421875 52.203125 45.855469 54.648438 44.34375 57.3125 C 43.621094 58.589844 42.675781 59.757812 41.808594 60.941406 C 39.46875 64.105469 39.46875 67.128906 42.046875 70.046875 C 43.660156 71.871094 44.382812 73.894531 44.253906 76.261719 C 44.121094 78.71875 44.027344 81.1875 43.753906 83.632812 C 43.136719 89.007812 42.992188 89.074219 37.761719 87.613281 C 34.476562 86.695312 31.46875 86.484375 28.75 89.242188 C 22.308594 95.761719 15.738281 102.144531 9.210938 108.570312 C 8.183594 109.582031 7.410156 110.632812 7.421875 112.160156 C 7.476562 121.382812 10.601562 129.921875 13.269531 138.570312 C 13.613281 139.683594 14.203125 140.75 14.820312 141.75 C 16.710938 144.808594 19.484375 144.980469 21.808594 142.246094 C 22.636719 141.277344 23.441406 140.289062 24.320312 139.371094 C 25.960938 137.648438 26.960938 138.359375 27.605469 140.304688 C 28.3125 142.484375 28.367188 144.757812 28.523438 147.015625 C 28.917969 152.457031 31.835938 155.320312 37.144531 155.453125 C 39.273438 155.503906 41.191406 156.121094 43.109375 156.976562 C 46.722656 158.578125 49.074219 158.371094 51.164062 155.191406 C 55.105469 149.183594 60.886719 145.558594 66.734375 141.878906 C 71.542969 138.859375 76.71875 139.539062 80.6875 143.523438 C 83.972656 146.820312 85 150.917969 85.433594 155.296875 C 85.734375 158.460938 86.652344 161.40625 89.53125 163.046875 C 94.5625 165.9375 99.765625 168.539062 104.851562 171.339844 C 111.210938 174.832031 118.570312 176.34375 124.273438 181.140625 C 127.03125 186.238281 127.097656 191.886719 127.675781 197.445312 C 128.054688 201.058594 127.871094 204.726562 129.027344 208.261719 C 130.566406 213.003906 134.914062 214.355469 138.671875 211.164062 C 139.121094 210.78125 139.539062 210.335938 140.039062 210.046875 C 140.972656 209.523438 142.035156 208.695312 143.046875 209.140625 C 144.152344 209.640625 143.914062 211.007812 143.914062 212.070312 C 143.929688 214.828125 143.707031 217.601562 143.914062 220.335938 C 144.203125 224.210938 146.6875 226.929688 149.488281 226.183594 C 151.929688 225.527344 151.917969 226.550781 151.800781 228.273438 C 151.71875 229.453125 151.8125 230.648438 151.65625 231.820312 C 150.617188 239.796875 150.539062 247.691406 152.730469 255.550781 C 153.402344 257.96875 153.902344 260.476562 154.464844 262.933594 C 155.804688 268.765625 157.449219 269.910156 162.980469 267.597656 C 165.609375 266.507812 168.222656 265.941406 171.007812 266.96875 C 171.640625 267.203125 172.347656 267.113281 172.347656 268.136719 C 172.375 274.601562 175.632812 279.804688 179.300781 284.679688 C 180.96875 286.886719 182.308594 289.960938 185.894531 289.949219 C 187.171875 285.203125 189.035156 280.765625 191.480469 276.625 C 189.035156 280.765625 187.171875 285.203125 185.894531 289.949219 C 186.828125 293.667969 187.75 297.386719 188.707031 301.089844 C 189.195312 302.96875 188.839844 304.046875 186.800781 304.953125 C 184.03125 306.164062 181.519531 307.988281 178.957031 309.632812 C 175.804688 311.65625 172.324219 313.640625 170.71875 317.066406 C 168.484375 321.863281 165.03125 325.203125 160.695312 327.933594 C 155.976562 330.902344 154.492188 335.320312 155.269531 340.667969 C 155.832031 344.609375 159.25 346.222656 162.625 344.148438 C 163.886719 343.375 165.148438 342.609375 166.398438 341.824219 C 169 340.167969 169.589844 340.457031 169.945312 343.582031 C 169.996094 344.070312 169.945312 344.570312 169.996094 345.054688 C 170.300781 348.105469 172.007812 349.207031 174.84375 348.234375 C 178.105469 347.105469 180.917969 348.261719 181.597656 351.664062 C 183.136719 359.335938 187.933594 365.367188 191.386719 372.058594 C 192.925781 375.011719 196.105469 375.027344 198.128906 372.320312 C 198.890625 371.292969 199.71875 370.203125 200.035156 369.007812 C 201.769531 362.515625 205.894531 359.234375 212.609375 358.945312 C 215.261719 358.839844 216.929688 357.117188 217.628906 354.621094 C 219.140625 349.15625 221.976562 344.28125 224.445312 339.246094 C 225.867188 336.34375 227.769531 334.003906 231.082031 332.941406 C 234.433594 331.851562 236.011719 329.15625 236.207031 325.714844 C 236.707031 317.109375 238.902344 308.828125 241.253906 300.605469 C 242.199219 297.304688 243.855469 294.230469 244.65625 290.855469 C 246.664062 289.871094 246.929688 287.4375 248.53125 286.125 C 255.140625 280.699219 261.75 275.285156 268.386719 269.898438 C 269.226562 269.214844 270.132812 268.714844 271.238281 269.765625 C 272.972656 271.394531 274.746094 270.871094 276.625 269.738281 C 278.726562 268.464844 279.910156 266.390625 281.589844 264.761719 C 283.324219 263.078125 284.246094 263.367188 284.847656 265.679688 C 285.441406 267.941406 287.121094 269.121094 289.210938 268.847656 C 293.046875 268.347656 296.871094 268.675781 300.695312 268.425781 C 305.308594 268.125 307.539062 265.8125 307.882812 261.09375 C 308.066406 258.546875 308.238281 255.996094 308.5 253.445312 C 308.632812 252.144531 308.921875 250.636719 310.578125 250.699219 C 314.925781 250.882812 315.988281 247.992188 316.726562 244.605469 C 317.371094 241.621094 317.988281 238.535156 320.074219 236.195312 C 322.402344 233.59375 323.242188 230.609375 323.136719 227.246094 C 325.503906 226.617188 325.632812 224.121094 326.910156 222.582031 C 329.601562 219.363281 330.523438 215.550781 329.15625 211.503906 C 325.921875 202.019531 326.722656 192.203125 326.921875 182.492188 C 327.027344 176.921875 329.511719 172.558594 334.964844 169.867188 C 339.273438 167.738281 344.015625 165.675781 345.761719 160.394531 C 347 156.648438 348.457031 152.984375 349.5625 149.199219 C 350.429688 146.242188 352.125 144.351562 354.789062 142.824219 C 358.890625 140.488281 362.476562 137.804688 363.921875 132.644531 C 367.535156 119.515625 363.332031 107.507812 359.535156 95.390625 Z M 252.210938 179.144531 C 252.855469 179.328125 253.511719 179.523438 254.15625 179.707031 C 253.511719 179.511719 252.855469 179.328125 252.210938 179.144531 Z M 256.296875 180.285156 C 256.335938 180.128906 256.390625 179.972656 256.429688 179.828125 C 256.375 179.972656 256.335938 180.128906 256.296875 180.285156 Z M 258.269531 172.796875 C 258.871094 170.511719 259.464844 168.238281 260.109375 165.976562 C 259.476562 168.25 258.871094 170.523438 258.269531 172.796875 Z M 258.269531 172.796875 " fill-opacity="1" fill-rule="nonzero"/></g><path fill="#ffc800" d="M 124.257812 181.140625 C 124.585938 178.445312 125.757812 176.214844 128.160156 174.871094 C 130.605469 173.507812 130.472656 170.984375 130.695312 168.894531 C 131.378906 162.523438 131.839844 160.734375 124.902344 158.882812 C 121.484375 157.960938 119.710938 155.925781 118.964844 152.417969 C 117.9375 147.609375 116.675781 142.867188 116.625 137.910156 C 116.597656 135.941406 117.4375 135.402344 119.359375 135.546875 C 128.398438 136.203125 137.464844 136.046875 146.53125 135.902344 C 148.882812 135.863281 150.867188 135.140625 151.3125 132.15625 C 151.640625 129.949219 152.601562 127.832031 153.375 125.71875 C 154.058594 123.867188 155.214844 122.445312 157.355469 122.261719 C 159.644531 122.066406 159.917969 123.917969 160.628906 125.417969 C 161.824219 127.976562 162.546875 130.722656 164.648438 132.890625 C 167.75 136.085938 170.851562 137.636719 175.710938 137.414062 C 184.320312 137.003906 192.953125 138.304688 201.546875 139.277344 C 204.960938 139.660156 208.390625 139.894531 211.820312 140.117188 C 214.289062 140.277344 215.605469 141 216.417969 143.851562 C 217.957031 149.226562 218.140625 154.703125 218.96875 160.117188 C 219.285156 162.195312 220.085938 164.085938 220.675781 166.054688 C 222.464844 171.980469 226.601562 175.097656 232.566406 176.148438 C 237.296875 176.976562 241.949219 178.105469 246.835938 178.171875 C 249.988281 178.222656 253.128906 179.539062 256.285156 180.285156 C 256.402344 181.667969 256.546875 183.136719 257.53125 184.109375 C 261.632812 188.195312 262 193.425781 262.261719 198.722656 C 260.066406 198.222656 258.214844 196.816406 255.917969 196.488281 C 252.65625 196.015625 251.144531 196.777344 249.925781 199.773438 C 248.9375 202.191406 248.636719 204.671875 248.597656 207.261719 C 248.492188 214.210938 246.429688 220.179688 240.136719 224.105469 C 236.589844 226.3125 232.726562 227.21875 228.691406 227.589844 C 217.363281 228.625 215 230.636719 211.871094 241.476562 C 210.730469 245.433594 209.246094 249.292969 207.878906 253.195312 C 206.328125 257.664062 202.871094 260.921875 200.480469 264.851562 C 198.773438 266.085938 197.734375 267.914062 196.445312 269.503906 C 191.480469 275.574219 187.894531 282.378906 185.871094 289.972656 C 182.28125 289.972656 180.941406 286.914062 179.273438 284.707031 C 175.609375 279.832031 172.347656 274.628906 172.324219 268.164062 C 172.324219 267.136719 171.613281 267.21875 170.984375 266.992188 C 168.195312 265.96875 165.582031 266.535156 162.953125 267.625 C 157.421875 269.921875 155.78125 268.792969 154.441406 262.960938 C 153.875 260.503906 153.390625 258.007812 152.707031 255.574219 C 150.523438 247.71875 150.589844 239.820312 151.628906 231.84375 C 151.785156 230.675781 151.679688 229.480469 151.773438 228.296875 C 151.890625 226.589844 151.902344 225.566406 149.460938 226.207031 C 146.660156 226.957031 144.179688 224.25 143.890625 220.363281 C 143.691406 217.617188 143.902344 214.855469 143.890625 212.097656 C 143.890625 211.03125 144.125 209.667969 143.023438 209.167969 C 142.023438 208.71875 140.945312 209.535156 140.011719 210.074219 C 139.511719 210.363281 139.09375 210.808594 138.644531 211.191406 C 134.886719 214.371094 130.539062 213.03125 129.003906 208.285156 C 127.859375 204.753906 128.03125 201.085938 127.648438 197.472656 C 127.097656 191.886719 127.03125 186.238281 124.257812 181.140625 Z M 124.257812 181.140625 " fill-opacity="1" fill-rule="nonzero"/><path fill="#fdd994" d="M 262.261719 198.722656 C 262 193.425781 261.632812 188.195312 257.53125 184.109375 C 256.546875 183.136719 256.402344 181.667969 256.285156 180.285156 C 257.992188 173.941406 259.554688 167.542969 261.472656 161.246094 C 262.355469 158.355469 261.960938 156.03125 259.898438 154.058594 C 254.535156 148.949219 254.523438 142.511719 255.457031 135.953125 C 256.035156 131.878906 255.523438 128.6875 251.578125 126.414062 C 248.492188 124.640625 246.496094 121.75 245.8125 118.1875 C 244.785156 112.777344 242.289062 108.28125 238.257812 104.511719 C 235.773438 102.183594 235.601562 99.9375 237.746094 97.496094 C 246.285156 87.773438 251.632812 76.378906 255.441406 64.160156 C 255.496094 63.976562 255.546875 63.777344 255.601562 63.59375 C 258.976562 62.820312 261.488281 64.765625 263.890625 66.511719 C 265.796875 67.890625 267.703125 68.835938 270.027344 69.101562 C 272.890625 69.414062 275.019531 70.808594 275.875 73.75 C 276.703125 76.601562 278.136719 78.273438 281.484375 76.957031 C 282.996094 76.367188 284.886719 76.578125 285.914062 77.824219 C 289.25 81.910156 293.601562 80.253906 297.632812 80.085938 C 305.203125 79.742188 312.796875 78.863281 320.140625 81.464844 C 323.625 82.699219 326.460938 85.066406 329.207031 87.46875 C 330.3125 88.441406 331.335938 89.53125 332.375 90.570312 C 338.890625 97.101562 338.945312 97.257812 347.40625 94.328125 C 350.203125 93.355469 353.03125 93.5 355.816406 92.988281 C 357.535156 92.671875 359.007812 93.816406 359.507812 95.40625 C 363.304688 107.519531 367.507812 119.53125 363.855469 132.628906 C 362.410156 137.792969 358.824219 140.472656 354.726562 142.8125 C 352.042969 144.335938 350.347656 146.242188 349.496094 149.183594 C 348.390625 152.957031 346.933594 156.636719 345.699219 160.378906 C 343.949219 165.664062 339.207031 167.726562 334.898438 169.855469 C 329.445312 172.546875 326.972656 176.921875 326.855469 182.480469 C 326.671875 192.191406 325.871094 202.007812 329.089844 211.492188 C 330.46875 215.539062 329.535156 219.351562 326.84375 222.570312 C 325.554688 224.105469 325.4375 226.589844 323.070312 227.234375 C 322.441406 226.601562 321.875 225.90625 321.191406 225.355469 C 313.964844 219.546875 308.566406 212.476562 306.003906 203.425781 C 305.476562 201.585938 304.085938 200.585938 302.378906 199.796875 C 295.585938 196.699219 288.75 193.636719 282.445312 189.589844 C 281.066406 188.695312 279.765625 188.644531 278.28125 189.273438 C 273.902344 191.152344 269.84375 193.464844 266.257812 196.660156 C 265.179688 197.628906 264.285156 199.363281 262.261719 198.722656 Z M 262.261719 198.722656 " fill-opacity="1" fill-rule="nonzero"/><path fill="#000000" d="M 262.261719 198.722656 C 264.285156 199.363281 265.179688 197.628906 266.28125 196.644531 C 269.871094 193.464844 273.929688 191.140625 278.304688 189.261719 C 279.789062 188.628906 281.089844 188.683594 282.472656 189.574219 C 288.777344 193.636719 295.609375 196.683594 302.402344 199.785156 C 304.113281 200.5625 305.503906 201.558594 306.03125 203.410156 C 308.59375 212.464844 313.992188 219.535156 321.21875 225.339844 C 321.902344 225.894531 322.480469 226.589844 323.097656 227.21875 C 323.214844 230.597656 322.363281 233.566406 320.035156 236.167969 C 317.949219 238.519531 317.34375 241.59375 316.6875 244.578125 C 315.949219 247.980469 314.886719 250.859375 310.535156 250.675781 C 308.882812 250.609375 308.59375 252.121094 308.460938 253.421875 C 308.199219 255.96875 308.027344 258.519531 307.84375 261.066406 C 307.5 265.785156 305.269531 268.097656 300.65625 268.398438 C 296.832031 268.648438 293.007812 268.320312 289.171875 268.820312 C 287.082031 269.097656 285.402344 267.914062 284.808594 265.652344 C 284.207031 263.339844 283.285156 263.050781 281.550781 264.734375 C 279.871094 266.363281 278.6875 268.453125 276.585938 269.714844 C 274.71875 270.84375 272.929688 271.367188 271.195312 269.738281 C 270.082031 268.6875 269.1875 269.1875 268.347656 269.871094 C 261.710938 275.257812 255.089844 280.671875 248.492188 286.097656 C 246.890625 287.414062 246.625 289.84375 244.617188 290.828125 C 243.382812 288.582031 241.214844 287.636719 238.980469 286.808594 C 232.316406 284.363281 227.46875 280.160156 225.433594 273.128906 C 224.972656 271.527344 224.210938 270.015625 223.605469 268.453125 C 222.988281 266.835938 221.832031 265.875 220.152344 265.546875 C 217.445312 265.023438 214.761719 264.761719 211.964844 264.824219 C 208.140625 264.917969 204.292969 266.953125 200.480469 264.824219 C 202.871094 260.898438 206.328125 257.636719 207.878906 253.171875 C 209.230469 249.269531 210.730469 245.417969 211.871094 241.449219 C 215 230.609375 217.363281 228.613281 228.691406 227.5625 C 232.726562 227.195312 236.585938 226.289062 240.136719 224.082031 C 246.429688 220.152344 248.492188 214.1875 248.597656 207.234375 C 248.636719 204.648438 248.9375 202.164062 249.925781 199.746094 C 251.144531 196.75 252.65625 195.988281 255.914062 196.460938 C 258.214844 196.816406 260.066406 198.222656 262.261719 198.722656 Z M 262.261719 198.722656 " fill-opacity="1" fill-rule="nonzero"/><path fill="#737373" d="M 200.492188 264.839844 C 204.304688 266.96875 208.167969 264.929688 211.976562 264.839844 C 214.777344 264.773438 217.457031 265.050781 220.164062 265.5625 C 221.832031 265.890625 223 266.847656 223.621094 268.464844 C 224.222656 270.027344 224.972656 271.539062 225.445312 273.144531 C 227.496094 280.171875 232.34375 284.378906 238.992188 286.820312 C 241.226562 287.648438 243.40625 288.582031 244.628906 290.84375 C 243.839844 294.21875 242.171875 297.292969 241.226562 300.589844 C 238.875 308.816406 236.679688 317.082031 236.179688 325.699219 C 235.984375 329.144531 234.40625 331.835938 231.054688 332.925781 C 227.746094 334.003906 225.839844 336.332031 224.421875 339.234375 C 221.949219 344.265625 219.113281 349.140625 217.601562 354.609375 C 216.90625 357.117188 215.234375 358.824219 212.582031 358.929688 C 205.867188 359.207031 201.742188 362.503906 200.007812 368.996094 C 199.691406 370.191406 198.863281 371.292969 198.101562 372.304688 C 196.078125 375.027344 192.898438 375.011719 191.363281 372.042969 C 187.90625 365.355469 183.097656 359.324219 181.574219 351.652344 C 180.890625 348.25 178.078125 347.09375 174.820312 348.222656 C 171.980469 349.207031 170.273438 348.089844 169.972656 345.042969 C 169.917969 344.554688 169.972656 344.054688 169.917969 343.570312 C 169.550781 340.441406 168.960938 340.152344 166.371094 341.808594 C 165.121094 342.597656 163.859375 343.359375 162.601562 344.136719 C 159.222656 346.210938 155.804688 344.59375 155.242188 340.652344 C 154.480469 335.304688 155.964844 330.890625 160.667969 327.921875 C 165.003906 325.203125 168.460938 321.851562 170.695312 317.054688 C 172.296875 313.613281 175.765625 311.640625 178.933594 309.617188 C 181.496094 307.976562 184.015625 306.148438 186.777344 304.941406 C 188.824219 304.046875 189.179688 302.957031 188.679688 301.078125 C 187.710938 297.371094 186.800781 293.652344 185.871094 289.933594 C 187.90625 282.339844 191.480469 275.535156 196.445312 269.464844 C 197.746094 267.898438 198.785156 266.074219 200.492188 264.839844 Z M 200.492188 264.839844 " fill-opacity="1" fill-rule="nonzero"/></svg>